<svg xmlns="http://www.w3.org/2000/svg" viewBox="0 0 1200 720" role="img" aria-labelledby="title desc">
  <title id="title">Naturnahe Gartenlandschaft</title>
  <desc id="desc">Eine ruhige Landschaft mit Wegen, Teich, Baeumen und Pflanzflaechen.</desc>
  <defs>
    <linearGradient id="sky" x1="0" x2="0" y1="0" y2="720">
      <stop offset="0" stop-color="#d9e7db"/>
      <stop offset="1" stop-color="#f4efe4"/>
    </linearGradient>
    <linearGradient id="pond" x1="620" x2="1010" y1="405" y2="610">
      <stop offset="0" stop-color="#80a9a0"/>
      <stop offset="1" stop-color="#315f66"/>
    </linearGradient>
  </defs>
  <rect width="1200" height="720" fill="url(#sky)"/>
  <path d="M0 443c125-67 237-77 337-30 103 49 229 50 379 5 158-48 319-33 484 44v258H0Z" fill="#6f8753"/>
  <path d="M0 536c162-84 326-99 493-43 149 49 285 50 407 1 99-40 199-40 300 3v223H0Z" fill="#3d6d50"/>
  <path d="M268 720c66-160 166-231 301-213 96 13 173 82 235 213Z" fill="#d1b187"/>
  <path d="M380 720c62-112 137-159 225-141 63 13 116 60 161 141Z" fill="#b9966e"/>
  <ellipse cx="853" cy="548" rx="230" ry="84" fill="url(#pond)"/>
  <ellipse cx="852" cy="534" rx="200" ry="58" fill="#8db5aa" opacity=".45"/>
  <g fill="#17392d">
    <path d="M154 394c-38-72-24-136 44-191 53 69 39 133-44 191Z"/>
    <path d="M238 390c-32-74-9-134 67-181 41 74 19 134-67 181Z"/>
    <path d="M1024 410c-37-84-14-154 70-209 52 84 29 154-70 209Z"/>
  </g>
  <g stroke="#5b3f2f" stroke-width="14" stroke-linecap="round">
    <path d="M159 386v115"/>
    <path d="M241 382v118"/>
    <path d="M1028 400v126"/>
  </g>
  <g fill="#d8d28a">
    <circle cx="94" cy="581" r="18"/>
    <circle cx="130" cy="604" r="14"/>
    <circle cx="1024" cy="615" r="18"/>
    <circle cx="1074" cy="586" r="12"/>
  </g>
</svg>
