<svg xmlns="http://www.w3.org/2000/svg" viewBox="0 0 220 220" role="img" aria-labelledby="title desc">
  <title id="title">Wildgrün Naturwerk Logo</title>
  <desc id="desc">Ein stilisiertes Blatt, ein junger Trieb und ein Kreis aus Erde.</desc>
  <defs>
    <linearGradient id="leaf" x1="38" y1="34" x2="178" y2="184" gradientUnits="userSpaceOnUse">
      <stop offset="0" stop-color="#7da85c"/>
      <stop offset="0.54" stop-color="#315f46"/>
      <stop offset="1" stop-color="#17392d"/>
    </linearGradient>
    <linearGradient id="soil" x1="32" y1="166" x2="188" y2="190" gradientUnits="userSpaceOnUse">
      <stop offset="0" stop-color="#9b6a45"/>
      <stop offset="1" stop-color="#4f3329"/>
    </linearGradient>
  </defs>
  <circle cx="110" cy="110" r="94" fill="#f4f0e6"/>
  <path d="M48 154c18 12 41 18 66 18 23 0 43-5 60-15-8 28-33 47-64 47-29 0-53-20-62-50Z" fill="url(#soil)"/>
  <path d="M111 169c-8-48 6-88 47-119 6 47-8 87-47 119Z" fill="url(#leaf)"/>
  <path d="M106 169c-33-21-51-52-54-93 36 13 58 44 54 93Z" fill="#6f9458"/>
  <path d="M109 168c8-39 24-76 51-113" fill="none" stroke="#f4f0e6" stroke-width="6" stroke-linecap="round"/>
  <path d="M105 168c-8-31-25-60-50-88" fill="none" stroke="#f4f0e6" stroke-width="5" stroke-linecap="round"/>
  <path d="M80 160h60" stroke="#e5d8bd" stroke-width="8" stroke-linecap="round"/>
</svg>
